<svg xmlns="http://www.w3.org/2000/svg" width="600" height="400" viewBox="0 0 600 400" role="img" aria-labelledby="title desc"><title id="title">運動訓練分類插畫</title><desc id="desc">Original code-authored SVG icon. Editorial navigation only; not a clinical anatomy or procedure diagram. Not generated by GPT Image.</desc><rect width="600" height="400" rx="28" fill="#F2F8F4"/><circle cx="324" cy="205" r="133" fill="#E3F2EA"/><ellipse cx="298" cy="320" rx="179" ry="15" fill="#CEE1D6"/><g fill="none" stroke="#26684B" stroke-width="6" stroke-linecap="round" stroke-linejoin="round"><path d="M211 207h179m-219-25v51m257-51v51"/><rect x="181" y="154" width="31" height="107" rx="10" fill="#FFF"/><rect x="390" y="154" width="31" height="107" rx="10" fill="#FFF"/><path d="M263 98v-9a37 37 0 0 1 74 0v9"/><rect x="258" y="86" width="84" height="42" rx="15" fill="#FFF"/><path d="M239 278c-19-44 10-72 44-77m57 11c31 29 22 62 7 81" stroke="#E0862E"/><path d="M271 297h56M443 94h37m-19-18v37"/></g></svg>
