<svg xmlns="http://www.w3.org/2000/svg" width="1600" height="1000"><rect width="1600" height="1000" fill="#081824"/><text x="70" y="90" fill="white" font-size="52" font-family="sans-serif" font-weight="700">場邊急性傷害：ABCDE 初步評估</text><text x="70" y="140" fill="#a8c8da" font-size="28" font-family="sans-serif">先處理危及生命問題，再進入肢體與回場評估</text><g transform="translate(70 220)" font-family="sans-serif"><g><circle cx="105" cy="105" r="92" fill="#b94b55"/><text x="75" y="125" fill="white" font-size="62" font-weight="700">A</text><text x="220" y="90" fill="white" font-size="34" font-weight="700">Airway</text><text x="220" y="132" fill="#ffd5d8" font-size="25">呼吸道＋頸椎保護</text></g><g transform="translate(0 150)"><circle cx="105" cy="105" r="92" fill="#a66a35"/><text x="75" y="125" fill="white" font-size="62" font-weight="700">B</text><text x="220" y="90" fill="white" font-size="34" font-weight="700">Breathing</text><text x="220" y="132" fill="#ffe0bf" font-size="25">呼吸與換氣</text></g><g transform="translate(0 300)"><circle cx="105" cy="105" r="92" fill="#9c8b35"/><text x="75" y="125" fill="white" font-size="62" font-weight="700">C</text><text x="220" y="90" fill="white" font-size="34" font-weight="700">Circulation</text><text x="220" y="132" fill="#fff2b8" font-size="25">循環與出血控制</text></g><g transform="translate(0 450)"><circle cx="105" cy="105" r="92" fill="#3d7b8f"/><text x="75" y="125" fill="white" font-size="62" font-weight="700">D</text><text x="220" y="90" fill="white" font-size="34" font-weight="700">Disability</text><text x="220" y="132" fill="#c9eff8" font-size="25">意識與神經學評估</text></g><g transform="translate(0 600)"><circle cx="105" cy="105" r="92" fill="#39745b"/><text x="75" y="125" fill="white" font-size="62" font-weight="700">E</text><text x="220" y="90" fill="white" font-size="34" font-weight="700">Exposure / Extremities</text><text x="220" y="132" fill="#c9f5df" font-size="25">露身檢查、環境控制、肢體評估</text></g></g><g transform="translate(930 245)"><ellipse cx="260" cy="90" rx="75" ry="82" fill="#d4a27e"/><path d="M260 175 C170 180 120 300 140 490 L185 690 L335 690 L380 490 C400 300 350 180 260 175Z" fill="#2c6d8e"/><path d="M150 280 L40 500" stroke="#d4a27e" stroke-width="42" stroke-linecap="round"/><path d="M370 280 L480 500" stroke="#d4a27e" stroke-width="42" stroke-linecap="round"/><path d="M210 680 L160 880" stroke="#d4a27e" stroke-width="48" stroke-linecap="round"/><path d="M310 680 L360 880" stroke="#d4a27e" stroke-width="48" stroke-linecap="round"/><circle cx="260" cy="270" r="115" fill="none" stroke="#ff6b66" stroke-width="8" stroke-dasharray="18 12"/><text x="30" y="930" fill="#a8c8da" font-size="24" font-family="sans-serif">生命威脅排除後：病史、理學檢查、神經血管功能、必要影像與轉送</text></g></svg>